<svg id="all_in_one" data-name="all in one" xmlns="http://www.w3.org/2000/svg" viewBox="0 0 1152.55 281.74"><defs><style>.cls-1{fill:#deaf2e;}.cls-2{fill:#0b5daa;}</style></defs><title>Blue</title><g id="Blue_n_Yellow" data-name="Blue n Yellow"><path class="cls-1" d="M464,249.13l-7,49.64h-4.85l.83-5.87c-5.29,4.55-11,6.84-17.07,6.84a15.71,15.71,0,0,1-12.4-5.61q-4.92-5.61-4.91-14.25a30,30,0,0,1,9.7-22.34q9.75-9.38,25.55-9.39A47.58,47.58,0,0,1,464,249.13Zm-10.23,38.08,4.89-34.73a25.16,25.16,0,0,0-6.08-.64A28.28,28.28,0,0,0,432.27,260a27.35,27.35,0,0,0-8.51,20.53c0,4.62,1.19,8.29,3.53,11.05a11.8,11.8,0,0,0,9.37,4.1C442.24,295.68,448,292.88,453.78,287.21Z" transform="translate(-18.44 -18)"/><path class="cls-1" d="M509.94,249.13l-.75,5.33A36.55,36.55,0,0,0,499.8,253q-10.87,0-17.35,7.41a26.36,26.36,0,0,0-6.45,17.8q0,7.65,4.58,12.33t12.14,4.65c3.5,0,8.21-1.33,14.16-4l-.76,5.16a33,33,0,0,1-14.61,3.41q-9.24,0-15-6.09c-3.8-4.07-5.72-9.39-5.72-16a29.72,29.72,0,0,1,8-20.68c5.34-5.9,12.49-8.85,21.39-8.85A50.21,50.21,0,0,1,509.94,249.13Z" transform="translate(-18.44 -18)"/><path class="cls-1" d="M552.47,249.13l-.76,5.33a36.36,36.36,0,0,0-9.39-1.45q-10.87,0-17.32,7.41a26.24,26.24,0,0,0-6.48,17.8c0,5.1,1.54,9.21,4.58,12.33s7.1,4.65,12.14,4.65c3.49,0,8.21-1.33,14.16-4l-.76,5.16A33,33,0,0,1,534,299.74q-9.22,0-14.94-6.09c-3.8-4.07-5.72-9.39-5.72-16a29.79,29.79,0,0,1,8-20.68q8-8.85,21.42-8.85A50.19,50.19,0,0,1,552.47,249.13Z" transform="translate(-18.44 -18)"/><path class="cls-1" d="M594.77,289.05v5.2a25.45,25.45,0,0,1-15.59,5.49q-9.87,0-15.91-6.52t-6-17.33q0-11.7,6.68-19.71t16.29-8a16.05,16.05,0,0,1,12.87,5.64c3.18,3.78,4.79,8.88,4.79,15.36,0,1.11-.08,2.37-.22,3.77h-35a28.71,28.71,0,0,0-.22,3.19A20.52,20.52,0,0,0,567,289.54a15,15,0,0,0,12.26,5.66C584.5,295.2,589.67,293.17,594.77,289.05Zm-31.33-20.44H593c.22-5-.85-8.86-3.24-11.68a12,12,0,0,0-9.66-4.24c-3.75,0-7.26,1.5-10.58,4.53A19.15,19.15,0,0,0,563.44,268.61Z" transform="translate(-18.44 -18)"/><path class="cls-1" d="M621.22,223.39l-10.58,75.38h-4.91l10.65-75.38Z" transform="translate(-18.44 -18)"/><path class="cls-1" d="M663.85,289.05v5.2a25.48,25.48,0,0,1-15.6,5.49c-6.57,0-11.89-2.18-15.91-6.52s-6-10.14-6-17.33c0-7.8,2.21-14.38,6.68-19.71s9.88-8,16.29-8q8,0,12.84,5.64c3.21,3.78,4.81,8.88,4.81,15.36,0,1.11-.08,2.37-.21,3.77h-35a31.37,31.37,0,0,0-.22,3.19,20.57,20.57,0,0,0,4.62,13.43,15,15,0,0,0,12.27,5.66C653.57,295.2,658.74,293.17,663.85,289.05ZM632.5,268.61h29.56c.22-5-.84-8.86-3.22-11.68a12,12,0,0,0-9.67-4.24c-3.74,0-7.26,1.5-10.58,4.53A19.22,19.22,0,0,0,632.5,268.61Z" transform="translate(-18.44 -18)"/><path class="cls-1" d="M686.78,249.13l-1.91,13.63.23.17q5.77-8.35,9.43-11.56a11.8,11.8,0,0,1,8-3.22,12.64,12.64,0,0,1,4.9,1V254a11.86,11.86,0,0,0-5.13-1.35q-5.13,0-11.65,7.8T684,269.24l-4.15,29.53h-4.9l7-49.64Z" transform="translate(-18.44 -18)"/><path class="cls-1" d="M748.33,249.13l-7,49.64h-4.87l.83-5.87q-7.93,6.83-17,6.84a15.77,15.77,0,0,1-12.42-5.61c-3.28-3.74-4.9-8.49-4.9-14.25q0-12.94,9.72-22.34t25.53-9.39A47.35,47.35,0,0,1,748.33,249.13Zm-10.22,38.08L743,252.48a25.48,25.48,0,0,0-6.11-.64,28.22,28.22,0,0,0-20.3,8.16,27.29,27.29,0,0,0-8.52,20.53c0,4.62,1.18,8.29,3.55,11.05a11.74,11.74,0,0,0,9.34,4.1C726.59,295.68,732.28,292.88,738.11,287.21Z" transform="translate(-18.44 -18)"/><path class="cls-1" d="M784.14,249.13l-.54,3.67H770.43l-4.53,23.85a101.6,101.6,0,0,0-1.37,10.63,8.72,8.72,0,0,0,2.29,6.47,7.45,7.45,0,0,0,5.6,2.31c3,0,6.14-1.41,9.51-4.3v4.53a18.7,18.7,0,0,1-10.31,3.45,11.55,11.55,0,0,1-8.84-3.68,12.79,12.79,0,0,1-3.41-9.12,56.05,56.05,0,0,1,1.47-11.05l4.72-23.09h-9.87l.59-3.67h9.8l2.24-11.34h4.84l-2.33,11.34Z" transform="translate(-18.44 -18)"/><path class="cls-1" d="M825.1,289.05v5.2a25.54,25.54,0,0,1-15.6,5.49c-6.58,0-11.91-2.18-15.92-6.52s-6-10.14-6-17.33q0-11.7,6.69-19.71c4.45-5.36,9.9-8,16.3-8,5.35,0,9.64,1.87,12.83,5.64s4.81,8.88,4.81,15.36c0,1.11-.07,2.37-.2,3.77h-35a31.37,31.37,0,0,0-.22,3.19,20.57,20.57,0,0,0,4.62,13.43,15,15,0,0,0,12.28,5.66C814.81,295.2,820,293.17,825.1,289.05Zm-31.36-20.44H823.3c.23-5-.86-8.86-3.22-11.68a12,12,0,0,0-9.66-4.24c-3.75,0-7.27,1.5-10.58,4.53A19.18,19.18,0,0,0,793.74,268.61Z" transform="translate(-18.44 -18)"/><path class="cls-1" d="M900.15,252.8v5.39q-8.79-5.5-16.13-5.5a12.27,12.27,0,0,0-7.21,2.09c-2,1.39-3,3-3,5a6.82,6.82,0,0,0,1.7,4.18c1.14,1.43,4.3,3.75,9.53,7s8.67,6.05,10.31,8.45a12.89,12.89,0,0,1,2.49,7.36c0,3.59-1.58,6.64-4.74,9.19a17.7,17.7,0,0,1-11.52,3.8c-6,0-11.54-2.18-16.68-6.52l1.53-5.19c4.5,4.79,9.61,7.17,15.37,7.17a12.64,12.64,0,0,0,7.77-2.25,6.84,6.84,0,0,0,3.08-5.67,8.21,8.21,0,0,0-1.81-4.82c-1.24-1.64-4.41-4.15-9.55-7.47s-8.43-6-9.89-8.16a11,11,0,0,1-2.22-6.32,10.77,10.77,0,0,1,4.53-8.78A17.67,17.67,0,0,1,885,248.15,28,28,0,0,1,900.15,252.8Z" transform="translate(-18.44 -18)"/><path class="cls-1" d="M949.68,249.13l-7,49.64h-4.84l1.39-8.8-.25-.16q-9.3,9.92-19.27,9.93a12.18,12.18,0,0,1-8.64-3.34,11.69,11.69,0,0,1-3.55-9,24.18,24.18,0,0,1,.15-2.64l5-35.61h4.85l-4.95,35.4a16.58,16.58,0,0,0-.11,1.94,8.53,8.53,0,0,0,2.37,6.39,8.8,8.8,0,0,0,6.48,2.34c5.65,0,11.88-3.89,18.7-11.73l4.81-34.34Z" transform="translate(-18.44 -18)"/><path class="cls-1" d="M995.29,249.13l-.75,5.33a36.49,36.49,0,0,0-9.4-1.45q-10.87,0-17.33,7.41a26.17,26.17,0,0,0-6.46,17.8q0,7.65,4.57,12.33t12.14,4.65c3.5,0,8.21-1.33,14.17-4l-.76,5.16a33,33,0,0,1-14.63,3.41q-9.23,0-15-6.09t-5.72-16a29.75,29.75,0,0,1,8-20.68q8-8.85,21.4-8.85A50.29,50.29,0,0,1,995.29,249.13Z" transform="translate(-18.44 -18)"/><path class="cls-1" d="M1037.82,249.13l-.77,5.33a36.36,36.36,0,0,0-9.39-1.45q-10.88,0-17.34,7.41a26.26,26.26,0,0,0-6.45,17.8c0,5.1,1.51,9.21,4.57,12.33s7.08,4.65,12.14,4.65c3.5,0,8.22-1.33,14.16-4l-.74,5.16a33,33,0,0,1-14.64,3.41q-9.21,0-15-6.09t-5.72-16a29.79,29.79,0,0,1,8-20.68q8-8.85,21.41-8.85A50.47,50.47,0,0,1,1037.82,249.13Z" transform="translate(-18.44 -18)"/><path class="cls-1" d="M1080.12,289.05v5.2a25.5,25.5,0,0,1-15.6,5.49c-6.56,0-11.89-2.18-15.91-6.52s-6-10.14-6-17.33q0-11.7,6.68-19.71t16.29-8a16,16,0,0,1,12.85,5.64c3.2,3.78,4.8,8.88,4.8,15.36,0,1.11-.07,2.37-.21,3.77h-35a30.93,30.93,0,0,0-.21,3.19,20.56,20.56,0,0,0,4.61,13.43,15,15,0,0,0,12.27,5.66C1069.85,295.2,1075,293.17,1080.12,289.05Zm-31.35-20.44h29.56q.33-7.46-3.23-11.68a12,12,0,0,0-9.66-4.24c-3.74,0-7.26,1.5-10.58,4.53A19.22,19.22,0,0,0,1048.77,268.61Z" transform="translate(-18.44 -18)"/><path class="cls-1" d="M1124.48,252.8v5.39q-8.81-5.5-16.14-5.5a12.25,12.25,0,0,0-7.19,2.09c-2,1.39-3,3-3,5a6.83,6.83,0,0,0,1.71,4.18c1.13,1.43,4.3,3.75,9.5,7s8.68,6.05,10.31,8.45a12.89,12.89,0,0,1,2.49,7.36,11.45,11.45,0,0,1-4.71,9.19,17.72,17.72,0,0,1-11.52,3.8q-9,0-16.68-6.52l1.52-5.19c4.49,4.79,9.63,7.17,15.37,7.17a12.66,12.66,0,0,0,7.77-2.25,6.81,6.81,0,0,0,3.08-5.67,8.13,8.13,0,0,0-1.84-4.82c-1.19-1.64-4.4-4.15-9.51-7.47s-8.44-6-9.92-8.16a11,11,0,0,1-2.2-6.32,10.73,10.73,0,0,1,4.52-8.78,17.74,17.74,0,0,1,11.3-3.58A28.09,28.09,0,0,1,1124.48,252.8Z" transform="translate(-18.44 -18)"/><path class="cls-1" d="M1163.61,252.8v5.39q-8.8-5.5-16.14-5.5a12.22,12.22,0,0,0-7.2,2.09c-2,1.39-3,3-3,5a6.78,6.78,0,0,0,1.68,4.18c1.13,1.43,4.3,3.75,9.53,7s8.65,6.05,10.31,8.45a13,13,0,0,1,2.48,7.36,11.52,11.52,0,0,1-4.7,9.19,17.84,17.84,0,0,1-11.55,3.8q-9,0-16.67-6.52l1.51-5.19c4.52,4.79,9.63,7.17,15.38,7.17A12.71,12.71,0,0,0,1153,293a6.86,6.86,0,0,0,3.08-5.67,8.32,8.32,0,0,0-1.83-4.82c-1.22-1.64-4.41-4.15-9.54-7.47s-8.41-6-9.89-8.16a11,11,0,0,1-2.22-6.32,10.72,10.72,0,0,1,4.54-8.78,17.66,17.66,0,0,1,11.27-3.58A28.08,28.08,0,0,1,1163.61,252.8Z" transform="translate(-18.44 -18)"/><path class="cls-2" d="M410.62,56.78,388.61,213H342.14L345,195.51q-24.35,20.16-50.55,20.15-21.84,0-33.75-12.75t-11.95-34.76a96.82,96.82,0,0,1,.85-12.27l14.1-99.1H310l-11.65,82.95a131.78,131.78,0,0,0-1.5,18.31q0,23.37,14,23.36,18,0,39.2-22.84L364.15,56.78Z" transform="translate(-18.44 -18)"/><polygon class="cls-2" points="456.95 103.22 443.73 194.99 397.27 194.99 410.13 103.53 456.95 103.22"/><path class="cls-2" d="M557.23,56.78,554.7,74.59q26-20.33,53.13-20.33,20.43,0,31.34,12.64c7.24,8.42,10.9,20.24,10.9,35.42a106,106,0,0,1-1,14.07L635.65,213H589.19l13.09-93.1a48.67,48.67,0,0,0,.67-8q0-23.16-14.46-23.15-16.63,0-39.14,24L535.22,213H488.73L510.9,56.78Z" transform="translate(-18.44 -18)"/><path class="cls-2" d="M728.62,56.78l-2.5,17.81q26-20.33,53.12-20.33,20.44,0,31.33,12.64t10.9,35.42a104.33,104.33,0,0,1-1,14.07L807.06,213H760.58l13.1-93.1a48.67,48.67,0,0,0,.67-8q0-23.16-14.46-23.15-16.64,0-39.15,24L706.63,213h-46.5L682.31,56.78Z" transform="translate(-18.44 -18)"/><path class="cls-2" d="M927.26,54.26q34.1,0,55.77,20.39t21.67,53.09q0,37.26-25.62,62.77T916,216q-33.25,0-56-21.8t-22.75-53.36q0-35.4,26.53-61T927.26,54.26Zm-10.92,124q17.65,0,28.9-16.17a61.12,61.12,0,0,0,11.26-35.63q0-15.42-8.57-24.88T925.24,92q-18.63,0-29.32,16.69t-10.66,34.78q0,15.77,9.41,25.24T916.34,178.21Z" transform="translate(-18.44 -18)"/><polygon class="cls-2" points="1063.23 149.94 1101.04 195.98 1152.12 195.98 1088.18 119.62 1063.23 149.94"/><polygon class="cls-2" points="1152.55 37.86 1101.41 37.86 1062.82 79.56 1088.41 108.81 1152.55 37.86"/><polygon class="cls-1" points="965.89 37.44 1016.99 37.44 1083.69 113.6 1016.25 195.56 965.89 195.56 1033.04 113.62 965.89 37.44"/><path class="cls-2" d="M225,154.15a124.58,124.58,0,0,0,8-45.05q0-27.63-12.6-48.36A82.91,82.91,0,0,0,185.58,29q-22.23-11-49.85-11A134.3,134.3,0,0,0,91.4,25.26,112.38,112.38,0,0,0,54,47.07,101.94,101.94,0,0,0,27.93,83.19q-9.49,21.6-9.49,48.93,0,31.53,15,52a85,85,0,0,0,37.92,29.57A126.54,126.54,0,0,0,118,222.79s49.68,7.13,89.06-15c0,0-4.75,1.18-23.38-3a103.31,103.31,0,0,0,18.07-14.51A104.74,104.74,0,0,0,225,154.15ZM84.28,163.94q-12.59-14.12-12.6-34.27a73.49,73.49,0,0,1,7.19-31.16,64.93,64.93,0,0,1,21.25-25.6q14-10.15,33.16-10.15A46.26,46.26,0,0,1,157.38,69a43.18,43.18,0,0,1,16.34,17.41q5.91,11.24,5.9,26.19a74.13,74.13,0,0,1-4,24.26A63.89,63.89,0,0,1,163.43,158,56.88,56.88,0,0,1,118.9,178Q96.85,178,84.28,163.94Z" transform="translate(-18.44 -18)"/><path class="cls-1" d="M153.66,206.08c-37.63,1-73.07-10.81-91-35.87,11.53,31.74,47.4,54.3,89.2,53.14s82.48-21.43,92.27-53.75C220.47,193.37,191.3,205,153.66,206.08Z" transform="translate(-18.44 -18)"/><path class="cls-1" d="M479.1,54.32a5.64,5.64,0,0,0-6.58,4.51l-5.86,39.7a5.88,5.88,0,0,0,11.6,1.72l5.85-39.71A5.64,5.64,0,0,0,479.1,54.32Z" transform="translate(-18.44 -18)"/><path class="cls-1" d="M459.49,67.41a5.63,5.63,0,0,0-6.58,4.51L447,111.62a5.89,5.89,0,0,0,11.61,1.72l5.85-39.71A5.64,5.64,0,0,0,459.49,67.41Z" transform="translate(-18.44 -18)"/><path class="cls-1" d="M444,54.32a5.66,5.66,0,0,0-6.58,4.51l-5.86,39.7a5.89,5.89,0,0,0,11.61,1.72L449,60.54A5.66,5.66,0,0,0,444,54.32Z" transform="translate(-18.44 -18)"/></g></svg>