<svg xmlns="http://www.w3.org/2000/svg" width="31.635" height="36.793" viewBox="0 0 31.635 36.793"><g transform="translate(-21599 -1566.008)"><path d="M-.143,14.455a2.076,2.076,0,0,0,.114-.714A16.009,16.009,0,0,1,1.228,9.313,14.132,14.132,0,0,1,3.314,5.942a15.386,15.386,0,0,1,4.456-3.8A15.934,15.934,0,0,1,12.8.286c.6-.114,1.228-.171,1.857-.229A11.471,11.471,0,0,1,16.054,0,16.287,16.287,0,0,1,21,.943a15.443,15.443,0,0,1,3.228,1.6A16.441,16.441,0,0,1,26.2,4.056a15.285,15.285,0,0,1,2.457,2.8,15.477,15.477,0,0,1,2.628,6.77c.057.428.086.857.114,1.257a7.539,7.539,0,0,1,.029,1.143,15.688,15.688,0,0,1-1.314,6.056,15.475,15.475,0,0,1-2.485,3.971,17.278,17.278,0,0,1-1.771,1.771c-.2.171-.2.171-.057.4l2.742,4.285c.857,1.343,1.743,2.714,2.6,4.056.029.029.029.057.057.086.057.114.057.143-.086.143H26.852a.464.464,0,0,1-.457-.257c-1.314-2.085-2.657-4.142-3.971-6.227-.029-.029-.029-.057-.057-.086-.057-.114-.143-.114-.257-.086-.314.143-.657.286-.971.4a15.034,15.034,0,0,1-3.514.857c-.428.057-.857.086-1.285.114h-.057c-.229,0-.257-.029-.257-.257V27.909c0-.171.029-.2.2-.2l.828-.086a10.686,10.686,0,0,0,3.114-.828c.086-.029.2-.114.257-.086.086.057.029.2,0,.286a2.521,2.521,0,0,0,2,2.914,2.633,2.633,0,0,0,3.142-2.142,2.578,2.578,0,0,0-1.885-2.914c-.086-.029-.171-.029-.229-.114a.384.384,0,0,1,.171-.2,11.794,11.794,0,0,0,3.856-7.4,11.748,11.748,0,0,0-.971-6.4,11.329,11.329,0,0,0-2.114-3.2,11.993,11.993,0,0,0-9.57-3.856A11.625,11.625,0,0,0,10.455,4.8,11.746,11.746,0,0,0,7.8,6.513,12.486,12.486,0,0,0,5.17,9.627,12.478,12.478,0,0,0,3.685,13.74a8.243,8.243,0,0,0-.114.828c-.029.2-.029.229-.257.229H-.2C-.143,14.769-.143,14.6-.143,14.455Z" transform="translate(21599.199 1566.008)" fill="#047ed3"/><path d="M13.919,68.027v6.627c0,.343,0,.371-.343.314a14.487,14.487,0,0,1-3.085-.828.334.334,0,0,1-.229-.371V65.142c0-.143-.029-.171-.171-.2H1.664c-.428,0-.371.029-.486-.343a13.361,13.361,0,0,1-.8-3.314C.35,61.057.378,61,.664,61H13.49c.428,0,.428,0,.428.457Z" transform="translate(21598.793 1522.433)" fill="#047ed3"/><path d="M77.1,93.8a1.577,1.577,0,0,1-1.6-1.6,1.613,1.613,0,0,1,1.6-1.6,1.633,1.633,0,0,1,1.6,1.6A1.594,1.594,0,0,1,77.1,93.8Z" transform="translate(21545.125 1501.289)" fill="#fbd332"/></g></svg>