<?xml version="1.0" encoding="utf-8"?>
<!-- Generator: Adobe Illustrator 25.2.1, SVG Export Plug-In . SVG Version: 6.00 Build 0)  -->
<svg version="1.1" id="Layer_1" xmlns="http://www.w3.org/2000/svg" xmlns:xlink="http://www.w3.org/1999/xlink" x="0px" y="0px"
	 viewBox="0 0 534.7 128.8" style="enable-background:new 0 0 534.7 128.8;" xml:space="preserve">
<style type="text/css">
	.st0{fill:#FBD332;}
	.st1{fill:#047ED3;}
</style>
<g>
	<path class="st0" d="M485.2,65.7c-2.8,0.1-5.7-2.2-5.7-5.6c0-3.6,3-5.6,5.7-5.6c2.7,0,5.6,2.3,5.7,5.6
		C490.9,63.4,488,65.9,485.2,65.7z"/>
	<g>
		<path class="st1" d="M0,50.6c0.4-0.8,0.3-1.7,0.4-2.5c0.7-5.4,2.2-10.5,4.4-15.5c1.9-4.3,4.3-8.2,7.3-11.8
			c4.4-5.4,9.5-9.9,15.6-13.3c5.5-3.2,11.4-5.3,17.6-6.5c2.1-0.4,4.3-0.6,6.5-0.8C53.4,0,55.1,0,56.7,0C62.6,0.2,68.4,1.3,74,3.3
			c4,1.4,7.7,3.3,11.3,5.6c2.4,1.6,4.7,3.3,6.9,5.3c3.3,2.9,6.1,6.2,8.6,9.8c2.6,3.7,4.6,7.6,6.2,11.8c1.5,3.8,2.4,7.8,3,11.9
			c0.2,1.5,0.3,3,0.4,4.4c0.1,1.3,0.2,2.6,0.1,4c-0.2,7.4-1.6,14.5-4.6,21.2c-2.2,5.1-5.1,9.7-8.7,13.9c-1.9,2.2-4,4.3-6.2,6.2
			c-0.7,0.6-0.7,0.6-0.2,1.4c3.2,5,6.4,10,9.6,15c3,4.7,6.1,9.5,9.1,14.2c0.1,0.1,0.1,0.2,0.2,0.3c0.2,0.4,0.2,0.5-0.3,0.5
			c-0.2,0-0.4,0-0.6,0c-4.8,0-9.5,0-14.3,0c-0.7,0-1.2-0.2-1.6-0.9c-4.6-7.3-9.3-14.5-13.9-21.8c-0.1-0.1-0.1-0.2-0.2-0.3
			c-0.2-0.4-0.5-0.4-0.9-0.3c-1.1,0.5-2.3,1-3.4,1.4c-4,1.5-8.1,2.5-12.3,3c-1.5,0.2-3,0.3-4.5,0.4c-0.1,0-0.2,0-0.2,0
			c-0.8,0-0.9-0.1-0.9-0.9c0-1,0-2,0-3c0-2.7,0-5.4,0-8c0-0.2,0-0.4,0-0.7c0-0.6,0.1-0.7,0.7-0.7c1-0.1,1.9-0.2,2.9-0.3
			c3.8-0.4,7.4-1.4,10.9-2.9c0.3-0.1,0.7-0.4,0.9-0.3c0.3,0.2,0.1,0.7,0,1c-0.8,4,1.7,9.2,7,10.2c5.3,1.1,10.2-2.5,11-7.5
			c0.8-5-2.4-9-6.6-10.2c-0.3-0.1-0.6-0.1-0.8-0.4c0.1-0.3,0.3-0.5,0.6-0.7c3.4-3,6.1-6.5,8.4-10.4c2.7-4.8,4.4-10,5.1-15.5
			c1-7.8-0.2-15.2-3.4-22.4c-1.8-4.1-4.3-7.9-7.4-11.2c-6-6.5-13.3-10.7-21.9-12.6c-3.8-0.9-7.7-1.1-11.6-0.9
			c-5.3,0.3-10.5,1.6-15.3,3.9c-3.4,1.6-6.5,3.6-9.3,6c-3.7,3.1-6.7,6.8-9.2,10.9c-2.6,4.5-4.3,9.3-5.2,14.4c-0.2,1-0.3,1.9-0.4,2.9
			c-0.1,0.7-0.1,0.8-0.9,0.8c-1.8,0-3.6,0-5.5,0c-2.3,0-4.5,0-6.8,0C0,51.7,0,51.1,0,50.6z"/>
		<path class="st1" d="M230.1,64.4c0-20.9,0-41.8,0-62.8c0-1.7-0.1-1.6,1.6-1.6c15.5,0,31,0,46.4,0c5.6,0,11.1,0.9,16.4,3
			c4,1.6,7.7,3.9,11,6.7c3.7,3.2,6.7,6.9,8.9,11.2c1.9,3.8,3.1,7.9,3.5,12.2c0.2,1.9,0.3,3.7,0.3,5.6c-0.2,8.6-2.7,16.4-8.3,23
			c-5.3,6.3-11.9,10.6-19.8,12.7c-1.1,0.3-1.1,0.3-0.5,1.3c7.6,12.7,15.2,25.3,22.8,38c2.8,4.6,5.6,9.3,8.4,13.9
			c0,0.1,0.1,0.1,0.1,0.2c0.4,0.7,0.3,0.8-0.5,0.8c-4.6,0-9.3,0-13.9,0c-0.6,0-0.9-0.3-1.2-0.7c-3.3-5.6-6.7-11.2-10-16.8
			c-5.6-9.4-11.2-18.8-16.9-28.2c-1.2-2-2.5-4.1-3.7-6.2c-0.4-0.7-0.9-1-1.7-1c-6.2,0-12.5,0-18.7,0c-1.4,0-1.4,0-1.4-1.4
			c0-2.5,0-5,0-7.5c0-1-0.2-2-0.1-3.1c0-0.2,0-0.4,0-0.7c0-0.3,0.2-0.4,0.4-0.4c0.3,0,0.6,0,0.9,0c7.9,0,15.8,0,23.7,0
			c4.5,0,8.8-0.7,12.9-2.6c2.1-1,4-2.2,5.8-3.8c1.7-1.5,3.2-3.1,4.4-5c1.9-2.8,3-5.8,3.5-9.1c0.6-4.5,0.4-8.9-1.1-13.2
			c-1.3-3.7-3.6-6.8-6.6-9.4c-3.1-2.7-6.7-4.6-10.7-5.6c-1.6-0.4-3.3-0.7-5-0.9c-1.7-0.2-3.4-0.1-5.1-0.1c-10.4,0-20.8,0-31.3,0
			c-1.4,0-1.4,0-1.4,1.4c0,37.5,0,75,0,112.5c0,1.8,0.1,1.7-1.7,1.7c-3.4,0-6.8,0-10.2,0c-0.3,0-0.5,0-0.8,0c-0.5,0-0.6-0.1-0.6-0.7
			c0-0.3,0-0.6,0-0.9C230.1,106.3,230.1,85.3,230.1,64.4z"/>
		<path class="st1" d="M366.2,127.8c0.8-0.7,1.5-1.4,2.3-2c4-3.4,8-6.8,11.7-10.5c0.3-0.3,0.6-0.5,1.1-0.5c2.1-0.3,4.2-0.6,6.3-1.3
			c4.4-1.3,8.3-3.5,11.7-6.6c2.7-2.4,5-5.1,6.9-8.2c2.4-4,3.9-8.3,4.6-13c0.3-2.3,0.5-4.5,0.5-6.8c0-25.7,0-51.5,0-77.2
			c0-1.5-0.2-1.6,1.6-1.6c3.7,0,7.4,0,11.1,0c0.2,0,0.4,0,0.7,0c0.7,0,0.8,0.1,0.8,0.8c0,0.2,0,0.5,0,0.8c0,26,0,52,0,77.9
			c0,5.8-0.8,11.5-2.7,17c-1.9,5.6-4.8,10.8-8.7,15.2c-2.9,3.3-6,6.3-9.6,8.7c-4,2.8-8.4,4.8-13.1,6.2c-3.1,0.9-6.3,1.5-9.6,1.8
			c-2.9,0.3-5.8,0.3-8.7,0.2c-2.1-0.1-4.3-0.4-6.4-0.7C366.6,128,366.4,128,366.2,127.8z"/>
		<path class="st1" d="M169.3,103c0,8.2,0,16.3,0,24.5c0,1.3,0,1.3-1.3,1.3c-3.5,0-6.9,0-10.4,0c-0.2,0-0.4,0-0.7,0
			c-0.5,0-0.6-0.1-0.6-0.7c0-0.3,0-0.6,0-0.9c0-15.7,0-31.5,0-47.2c0-0.9-0.2-1.6-0.7-2.3c-4.2-6.5-8.3-13.1-12.5-19.6
			c-5.2-8.2-10.5-16.5-15.7-24.7c-5.2-8.2-10.5-16.5-15.7-24.7c-1.6-2.5-3.2-5-4.8-7.5c-0.2-0.3-0.5-0.6-0.4-0.9
			c0.2-0.3,0.6-0.2,0.9-0.2c4.4,0,8.9,0,13.3,0c0.7,0,1.1,0.2,1.5,0.8c2.7,4.3,5.4,8.5,8.2,12.8c4.2,6.6,8.5,13.2,12.7,19.9
			c3.2,5.1,6.5,10.1,9.8,15.2c4,6.3,8.1,12.6,12.1,19c0.9,1.4,1.8,2.8,2.6,4.4c1.1,2.3,1.7,4.7,1.7,7.2
			C169.3,87.2,169.3,95.1,169.3,103z"/>
		<path class="st1" d="M327.7,41.6c0-13.4,0-26.7,0-40.1c0-1.5,0-1.5,1.5-1.5c3.7,0,7.4,0,11.2,0c0.2,0,0.4,0,0.7,0
			c0.6,0,0.7,0.2,0.7,0.8c0,0.3,0,0.7,0,1c0,25.8,0,51.6,0,77.4c0,4.4,0.6,8.7,2,12.9c1.6,4.9,4.2,9.1,7.8,12.7
			c2.7,2.7,5.6,5,9.1,6.7c1.9,0.9,3.8,1.5,5.8,2c0.7,0.2,1.5,0.4,2.2,0.6c0.5,0.2,0.5,0.3,0.2,0.7c-0.1,0.1-0.2,0.2-0.4,0.4
			c-3.2,3.2-6.5,6.4-9.7,9.7c-0.5,0.5-1,0.7-1.7,0.4c-4.9-2-9.4-4.7-13.4-8.2c-7.4-6.5-12.3-14.6-14.6-24.1
			c-0.7-3.1-1.2-6.2-1.4-9.4c-0.1-2.1-0.1-4.2-0.1-6.2C327.7,65.4,327.7,53.5,327.7,41.6z"/>
		<path class="st1" d="M47.8,85.6c0,7.7,0,15.5,0,23.2c0,1.2,0,1.3-1.2,1.1c-3.7-0.6-7.3-1.5-10.8-2.9c-0.7-0.3-0.8-0.7-0.8-1.3
			c0-7.3,0-14.7,0-22c0-2.5,0-5,0-7.5c0-0.2,0-0.4,0-0.7c0-0.5-0.1-0.6-0.6-0.7c-0.3,0-0.6,0-0.8,0c-9.6,0-19.1,0-28.7,0
			c-1.5,0-1.3,0.1-1.7-1.2C1.8,69.8,0.8,66,0.4,62c-0.1-0.8,0-1,1-1c3.7,0,7.5,0,11.2,0c11.2,0,22.5,0,33.7,0c1.5,0,1.5,0,1.5,1.6
			C47.8,70.3,47.8,77.9,47.8,85.6z"/>
		<path class="st1" d="M212,0c2.2,0,4.4,0,6.7,0c0.1,0,0.2,0,0.2,0c0.2,0,0.5-0.1,0.7,0.1c0.2,0.3-0.1,0.5-0.2,0.7
			c-1.4,2.2-2.8,4.3-4.2,6.5c-5.3,8.2-10.6,16.4-15.8,24.6c-3,4.6-5.9,9.2-8.9,13.8c-4.6,7.1-9.1,14.2-13.7,21.3c-0.6,1-0.6,1-1.3,0
			c-2.2-3.4-4.4-6.8-6.6-10.1c-0.4-0.6-0.3-0.9,0-1.5c4.4-6.9,8.8-13.8,13.2-20.7c5.6-8.8,11.2-17.5,16.7-26.3
			c1.6-2.6,3.3-5.1,4.9-7.7C204,0.2,204.4,0,205,0C207.3,0,209.6,0,212,0z"/>
		<path class="st0" d="M81.1,101.8c-2.8,0.1-5.6-2.2-5.6-5.6c0-3.5,2.9-5.5,5.6-5.6c2.7,0,5.6,2.3,5.6,5.6
			C86.7,99.5,83.8,102,81.1,101.8z"/>
	</g>
	<g>
		<path class="st1" d="M477,65.5c0.2,0.1,0.5-0.2,0.3-0.4c-0.9-1.4-1.4-3.1-1.4-5c0-3.8,2.1-6.6,4.8-8c0.2-0.1,0.2-0.5-0.1-0.5
			c-18.7-5.2-22.2-10.6-22.2-19.2c0-16.3,19.7-18.1,28.2-18.1c17.6,0,28,6.8,30.9,20.3l0.9,4.2c0,0.1,0.1,0.2,0.3,0.2h14.2
			c0.2,0,0.3-0.2,0.3-0.3l-1-6.2C530.7,22.6,523.2,0,486.8,0c-26.4,0-43.5,12.8-43.5,32.6C443.3,52.6,458.4,60.3,477,65.5z"/>
		<path class="st1" d="M493.2,54.6c-0.3-0.1-0.5,0.2-0.3,0.4c0.9,1.4,1.5,3.1,1.5,5c0,3.6-2,6.6-4.7,8.1c-0.2,0.1-0.2,0.5,0.1,0.5
			c25.5,6.5,29.8,12.8,29.8,24.5c0,13.5-12.1,21.5-32.3,21.5c-11.4,0-31.2-3.1-35.5-24l-0.9-4.2c0-0.1-0.1-0.2-0.3-0.2h-14.6
			c-0.2,0-0.3,0.2-0.3,0.3l1.2,6.3c4.4,22.8,22.7,35.9,50.2,35.9c14,0,25.7-3.2,34-9.3c8.8-6.4,13.5-15.7,13.5-26.7
			C534.7,72.7,523.4,62.1,493.2,54.6z"/>
	</g>
</g>
</svg>
